<?xml version="1.0" encoding="UTF-8" standalone="no"?>
<svg
   viewBox="0 0 538.5108 292.71802"
   version="1.1"
   id="svg3"
   width="538.5108"
   height="292.71802"
   xmlns="http://www.w3.org/2000/svg"
   xmlns:svg="http://www.w3.org/2000/svg">
  <defs
     id="defs3" />
  <path
     d="m 0.35280998,176.63382 c 0.35,3.3 1.00000002,6.5 1.40000002,7.15 0.95,1.5 28.150004,2.4 83.950007,2.8 24.550003,0.2 45.100003,0.6 45.650003,0.95 2.8,1.75 5.85,-2.25 4.15,-5.45 -1.55,-2.9 -4,-3 -58.500006,-3.35 -58.05,-0.35 -67.95,-1.15 -69.7,-5.55 -0.65,-1.65 -0.75,-10.75 -0.3,-25.55 0.4,-12.65 0.85,-33.6 1,-46.5 0.55,-43.850001 1.45,-82.450001 2.1,-90.100001 0.85,-9.9499995 -0.75,-13.9499996 -3.55,-8.7499995 -2.750004,5.25 -3.250004,9.8499995 -3.550004,32.3499995 -0.35,28.6 -1.55,80.200001 -2.85000002,121.000001 -0.25,8.25 -0.2,17.7 0.2,21 m 188.10001002,-43.15 c 2.75,2.55 6.1,5.2 7.5,5.8 1.4,0.65 2.55,1.55 2.55,2 0,0.4 6.2,5.9 13.74999,12.2 13.3,11.05 33.25,30.5 33.25,32.45 0,0.5 1.9,1.2 4.25,1.55 2.35,0.3 6.5,1.05 9.25,1.65 2.75,0.55 10.6,1 17.5,0.9 6.85,-0.05 16.55,0.35 21.45,0.95 9.65,1.2 12.55,0.25 12.55,-4.05 0,-3.2 -4.7,-3.95 -30.1,-4.7 -28.75,-0.8 -24.55,0.8 -42.45,-16.2 -7.15,-6.85 -17.1,-15.85 -22.15,-20.1 -10.34999,-8.75 -11.99999,-10.15 -18.44999,-16.05 l -4.65,-4.25 0.9,-8 c 0.45,-4.4 0.5,-12.95 0.05,-18.999998 -0.45,-6.05 -0.55,-14.400003 -0.25,-18.550003 l 0.6,-7.55 8.3,-7.45 c 4.54999,-4.1 10.14999,-8.75 12.39999,-10.35 2.25,-1.65 6.65,-5.35 9.7,-8.35 3.1,-2.95 6.75,-6 8.15,-6.7 3.4,-1.85 17.65,-16.85 21.95,-23.2 l 3.5,-5.15 15.5,0.15 c 28.75,0.3 41.55,-2.2999995 35.65,-7.2499995 -1,-0.8 -7.05,-0.95 -21.35,-0.45 -16.85,0.55 -20.45,0.4 -23.05,-0.85 -8.5,-4.3 -21.1,0.7 -14.15,5.55 2.05,1.45 2,1.5999995 -3.75,7.8499995 -3.2,3.5 -7.5,8.25 -9.55,10.55 -2.05,2.3 -5.5,5.3 -7.7,6.65 -2.15,1.4 -5,3.55 -6.35,4.8 -1.35,1.25 -4.6,4.1 -7.3,6.3 -2.7,2.2 -6.5,5.55 -8.45,7.4 -8.09999,7.9 -14.19999,12.2 -16.79999,11.9 -3.8,-0.45 -4.25,2.6 -4.05,29.200003 0.15,19.649998 -0.1,24.299998 -1.5,28.299998 -2.3,6.65 -2.25,6.85 3.3,12.05 m 35.79999,119.95 c 2.05,1.2 5.55,2.7 7.75,3.35 2.2,0.65 7.35,2.3 11.5,3.65 4.1,1.4 10.2,3.3 13.5,4.25 3.3,0.95 8.25,2.55 11,3.5 2.75,1 7.7,2.5 11,3.4 3.3,0.9 7.55,2.15 9.5,2.75 6.25,2 26.35,6.9 32,7.8 3,0.5 10.45,2.05 16.5,3.4 23.85,5.4 46.2,7.8 66,7.05 18.3,-0.65 21.45,-1.05 52.5,-6.45 26.6,-4.65 27.85,-4.85 37.1,-5.9 8.35,-0.95 23.3,-4.15 28.45,-6.1 1.35,-0.55 5.2,-1.4 8.55,-1.95 3.35,-0.55 6.75,-1.5 7.5,-2.15 2.05,-1.7 1.8,-5.9 -0.35,-5.9 -3.7,0.05 -19.3,2.95 -21.15,3.95 -2.65,1.4 -14.35,3.85 -27.1,5.6 -5.8,0.8 -14.1,2.1 -18.5,2.9 -4.4,0.75 -12.3,2.15 -17.5,3.05 -5.25,0.9 -12.9,2.3 -17,3.1 -12.8,2.5 -42.8,3.9 -53.9,2.5 -21.95,-2.75 -38.15,-5.25 -46.6,-7.15 -4.95,-1.1 -11.25,-2.4 -14,-2.85 -7.65,-1.3 -35.8,-8.85 -47,-12.55 -5.5,-1.85 -12.7,-4.1 -16,-5.05 -3.3,-0.95 -7.35,-2.1 -9,-2.55 -6.3,-1.85 -15.2,-4.85 -20.3,-6.85 -9.1,-3.6 -12.55,0.4 -4.45,5.2"
     id="path1" />
  <path
     d="m 298.65281,115.38382 c 11.1,11.05 13.25,8.6 12.3,-13.95 -0.95,-23.300001 -2.1,-24.950001 -11.6,-16.050001 l -5.6,5.250003 -0.45,9.499998 -0.45,9.45 z m 66.2,15.7 c 0.6,0.6 1.45,1.05 1.95,1.05 1.05,0 13.25,10.6 19.65,17.1 11.05,11.1 22.15,23 29.9,31.85 11.15,12.7 9.55,12.25 45.15,12.35 29.35,0.05 32.35,-0.2 33.45,-3 1.45,-3.75 -11.65,-6 -23.8,-4.15 -5.9,0.95 -37.1,-0.6 -40.7,-2 -0.95,-0.35 -4.5,-3.8 -7.95,-7.65 -20.3,-22.75 -30.5,-33.35 -42.85,-44.35 l -8.25,-7.35 0.6,-12.15 c 0.3,-6.7 0.75,-19.649998 0.95,-28.750001 0.35,-16.6 1.25,-20.9 4.25,-20.9 0.7,0 2.95,-2.15 5.05,-4.75 2.05,-2.65 8.85,-9.7 15.1,-15.75 6.2,-6.05 15.2,-14.8 20,-19.45 l 8.65,-8.5 6.5,-0.45 c 6.3,-0.45 53.15,-0.4 59.8,0.05 2.05,0.15 3.7,-0.3 4.25,-1.2 1.1,-1.75 1.25,-5.8999995 0.2,-6.0499995 -10.25,-1 -19.35,-1.2 -48.75,-0.85 -22.85,0.3 -22.9,0.3 -35.5,12.7999995 -28.15,27.9 -42.2,41.3 -44.35,42.25 -3.15,1.45 -3.7,4.45 -2.6,14.4 0.85,8.25 0.65,29.850001 -0.35,32.500001 -1.1,3 -1.4,21.9 -0.35,22.95"
     id="path2" />
  <path
     d="m 476.15281,118.68382 c 16.7,7.45 21.1,5.15 17.85,-9.55 -0.8,-3.6 -1.45,-8.25 -1.45,-10.399998 -0.1,-12.100003 -5.5,-14.800003 -14.15,-7.05 -2,1.75 -4.3,3.6 -5.15,4.05 -1.15,0.65 -1.75,3.5 -2.25,10.599998 l -0.75,9.7 z"
     id="path3" />
</svg>
